<svg width="23" height="23" viewBox="0 0 23 23" fill="none" xmlns="http://www.w3.org/2000/svg">
<rect x="0.25" width="22" height="23" rx="5" fill="#FFC683"/>
<path fill-rule="evenodd" clip-rule="evenodd" d="M5.0625 8.32691C5.0625 8.06405 5.2756 7.85095 5.53846 7.85095H11.8846C12.1474 7.85095 12.3605 8.06405 12.3605 8.32691C12.3605 8.58977 12.1474 8.80287 11.8846 8.80287H5.53846C5.2756 8.80287 5.0625 8.58977 5.0625 8.32691ZM14.1057 7.85095C14.293 7.85095 14.4629 7.9608 14.5397 8.1316L17.3955 14.4777C17.5033 14.7174 17.3965 14.9992 17.1568 15.107C16.917 15.2149 16.6353 15.108 16.5274 14.8683L15.6152 12.8413H12.5961L11.684 14.8683C11.5761 15.108 11.2944 15.2149 11.0546 15.107C10.8149 14.9992 10.7081 14.7174 10.8159 14.4777L13.6717 8.1316C13.7485 7.9608 13.9184 7.85095 14.1057 7.85095ZM13.0245 11.8894H15.1869L14.1057 9.48675L13.0245 11.8894ZM5.0625 11.5C5.0625 11.2371 5.2756 11.024 5.53846 11.024H9.98073C10.2436 11.024 10.4567 11.2371 10.4567 11.5C10.4567 11.7628 10.2436 11.9759 9.98073 11.9759H5.53846C5.2756 11.9759 5.0625 11.7628 5.0625 11.5ZM5.0625 14.673C5.0625 14.4102 5.2756 14.1971 5.53846 14.1971H8.71151C8.97437 14.1971 9.18747 14.4102 9.18747 14.673C9.18747 14.9359 8.97437 15.149 8.71151 15.149H5.53846C5.2756 15.149 5.0625 14.9359 5.0625 14.673Z" fill="white"/>
</svg>
