<svg width="23" height="23" viewBox="0 0 23 23" fill="none" xmlns="http://www.w3.org/2000/svg">
<rect x="1.25" y="0.5" width="21" height="22" rx="4.5" fill="white"/>
<rect x="1.25" y="0.5" width="21" height="22" rx="4.5" stroke="#CECECE"/>
<path fill-rule="evenodd" clip-rule="evenodd" d="M5.5625 8.32691C5.5625 8.06405 5.7756 7.85095 6.03846 7.85095H12.3846C12.6474 7.85095 12.8605 8.06405 12.8605 8.32691C12.8605 8.58977 12.6474 8.80287 12.3846 8.80287H6.03846C5.7756 8.80287 5.5625 8.58977 5.5625 8.32691ZM14.6057 7.85095C14.793 7.85095 14.9629 7.9608 15.0397 8.1316L17.8955 14.4777C18.0033 14.7174 17.8965 14.9992 17.6568 15.107C17.417 15.2149 17.1353 15.108 17.0274 14.8683L16.1152 12.8413H13.0961L12.184 14.8683C12.0761 15.108 11.7944 15.2149 11.5546 15.107C11.3149 14.9992 11.2081 14.7174 11.3159 14.4777L14.1717 8.1316C14.2485 7.9608 14.4184 7.85095 14.6057 7.85095ZM13.5245 11.8894H15.6869L14.6057 9.48675L13.5245 11.8894ZM5.5625 11.5C5.5625 11.2371 5.7756 11.024 6.03846 11.024H10.4807C10.7436 11.024 10.9567 11.2371 10.9567 11.5C10.9567 11.7628 10.7436 11.9759 10.4807 11.9759H6.03846C5.7756 11.9759 5.5625 11.7628 5.5625 11.5ZM5.5625 14.673C5.5625 14.4102 5.7756 14.1971 6.03846 14.1971H9.21151C9.47437 14.1971 9.68747 14.4102 9.68747 14.673C9.68747 14.9359 9.47437 15.149 9.21151 15.149H6.03846C5.7756 15.149 5.5625 14.9359 5.5625 14.673Z" fill="#616161"/>
</svg>
