<svg width="44" height="47" viewBox="0 0 44 47" fill="none" xmlns="http://www.w3.org/2000/svg">
<path d="M19.7575 21.0079C18.658 21.0079 17.7416 21.8326 17.65 22.9322V26.2309H21.865V22.9322C21.7734 21.8326 20.8571 21.0079 19.7575 21.0079Z" fill="#FFB55E"/>
<g filter="url(#filter0_d_895_2924)">
<path d="M35.0574 20.8705L39.135 18.5797L34.7367 16.8845L38.0812 13.5858L33.408 13.0818L35.7905 9.05007L31.1631 9.78312L32.4001 5.29319L28.1393 7.17163L28.1851 2.49844L24.5656 5.43064L23.3744 0.894894L20.6255 4.69759L18.3347 0.620001L16.6395 4.97248L13.3408 1.62794L12.8368 6.30114L8.80507 3.91872L9.53812 8.5461L5.04819 7.30908L6.92663 11.5699H2.25344L5.18564 15.1894L0.649894 16.3806L4.45259 19.1295L0.375 21.4203L4.72748 23.1155L1.38294 26.4142L6.05613 26.9182L3.67372 30.9499L8.3011 30.2169L7.06408 34.7068L11.3249 32.8284L11.2791 37.5016L14.8985 34.5694L16.0898 39.1051L18.8387 35.3024L21.1295 39.38L22.8246 35.0275L26.1234 38.3721L26.6273 33.6989L30.6591 36.0813L29.9261 31.4539L34.416 32.6909L32.5376 28.4301L37.2107 28.4759L34.2785 24.8565L38.8143 23.6652L35.0574 20.8705ZM21.2669 6.75929C22.9621 5.47645 20.2132 10.3329 20.2132 10.3329L20.259 10.1496C20.259 10.1955 19.5259 8.04213 21.2669 6.75929ZM18.8387 7.17163C20.5339 5.8888 17.7849 10.7452 17.7849 10.7452L17.8307 10.562C17.8307 10.6078 17.1435 8.50028 18.8387 7.17163ZM27.9102 28.9799H11.5998V25.3146H13.295V18.9921H26.215V25.3146H27.9102V28.9799ZM14.2571 18.5339V13.9523H25.2529V18.5339H14.2571ZM28.0476 13.3109C28.0476 13.6316 27.7727 13.9065 27.452 13.9065H12.058C11.7373 13.9065 11.4624 13.6316 11.4624 13.3109V11.6616C11.4624 11.3409 11.7373 11.066 12.058 11.066H27.4978C27.8185 11.066 28.0934 11.3409 28.0934 11.6616V13.3109H28.0476Z" fill="#FFB55E"/>
</g>
<defs>
<filter id="filter0_d_895_2924" x="-3.625" y="0.620001" width="46.76" height="46.76" filterUnits="userSpaceOnUse" color-interpolation-filters="sRGB">
<feFlood flood-opacity="0" result="BackgroundImageFix"/>
<feColorMatrix in="SourceAlpha" type="matrix" values="0 0 0 0 0 0 0 0 0 0 0 0 0 0 0 0 0 0 127 0" result="hardAlpha"/>
<feOffset dy="4"/>
<feGaussianBlur stdDeviation="2"/>
<feComposite in2="hardAlpha" operator="out"/>
<feColorMatrix type="matrix" values="0 0 0 0 0 0 0 0 0 0 0 0 0 0 0 0 0 0 0.25 0"/>
<feBlend mode="normal" in2="BackgroundImageFix" result="effect1_dropShadow_895_2924"/>
<feBlend mode="normal" in="SourceGraphic" in2="effect1_dropShadow_895_2924" result="shape"/>
</filter>
</defs>
</svg>
