<svg width="54" height="59" viewBox="0 0 54 59" fill="none" xmlns="http://www.w3.org/2000/svg">
<path d="M24.8808 26.794C23.4691 26.794 22.2927 27.8528 22.175 29.2644V33.4995H27.5865V29.2644C27.4688 27.8528 26.2924 26.794 24.8808 26.794Z" fill="#FFB55E"/>
<g filter="url(#filter0_d_544_42841)">
<path d="M44.5265 26.6176L49.7615 23.6766L44.1148 21.5003L48.4086 17.2652L42.409 16.6182L45.4676 11.4421L39.5268 12.3832L41.115 6.61887L35.6447 9.03048L35.7036 3.03087L31.0568 6.79533L29.5275 0.972181L25.9983 5.85422L23.0573 0.619263L20.881 6.20714L16.646 1.9133L15.999 7.91291L10.8228 4.85428L11.7639 10.7951L5.99961 9.20694L8.41122 14.6772H2.41161L6.17607 19.3239L0.352918 20.8532L5.23495 24.3824L0 27.3234L5.58787 29.4997L1.29403 33.7348L7.29364 34.3818L4.23502 39.5579L10.1758 38.6168L8.58768 44.3811L14.0579 41.9695L13.9991 47.9691L18.6458 44.2047L20.1752 50.0278L23.7043 45.1458L26.6453 50.3807L28.8217 44.7929L33.0567 49.0867L33.7037 43.0871L38.8798 46.1457L37.9387 40.2049L43.703 41.7931L41.2914 36.3228L47.291 36.3816L43.5266 31.7349L49.3497 30.2056L44.5265 26.6176ZM26.8218 8.5011C28.9981 6.85415 25.4689 13.089 25.4689 13.089L25.5278 12.8538C25.5278 12.9126 24.5866 10.1481 26.8218 8.5011ZM23.7043 9.03048C25.8807 7.38353 22.3515 13.6184 22.3515 13.6184L22.4103 13.3831C22.4103 13.442 21.528 10.7363 23.7043 9.03048ZM35.3506 37.0287H14.4108V32.3231H16.5872V24.206H33.1743V32.3231H35.3506V37.0287ZM17.8224 23.6178V17.7358H31.9391V23.6178H17.8224ZM35.5271 16.9123C35.5271 17.3241 35.1742 17.677 34.7624 17.677H14.999C14.5873 17.677 14.2344 17.3241 14.2344 16.9123V14.7948C14.2344 14.3831 14.5873 14.0302 14.999 14.0302H34.8213C35.233 14.0302 35.5859 14.3831 35.5859 14.7948V16.9123H35.5271Z" fill="#FFB55E"/>
</g>
<defs>
<filter id="filter0_d_544_42841" x="-4" y="0.619263" width="57.7615" height="57.7615" filterUnits="userSpaceOnUse" color-interpolation-filters="sRGB">
<feFlood flood-opacity="0" result="BackgroundImageFix"/>
<feColorMatrix in="SourceAlpha" type="matrix" values="0 0 0 0 0 0 0 0 0 0 0 0 0 0 0 0 0 0 127 0" result="hardAlpha"/>
<feOffset dy="4"/>
<feGaussianBlur stdDeviation="2"/>
<feComposite in2="hardAlpha" operator="out"/>
<feColorMatrix type="matrix" values="0 0 0 0 0 0 0 0 0 0 0 0 0 0 0 0 0 0 0.25 0"/>
<feBlend mode="normal" in2="BackgroundImageFix" result="effect1_dropShadow_544_42841"/>
<feBlend mode="normal" in="SourceGraphic" in2="effect1_dropShadow_544_42841" result="shape"/>
</filter>
</defs>
</svg>
