<svg width="19" height="21" viewBox="0 0 19 21" fill="none" xmlns="http://www.w3.org/2000/svg">
<path fill-rule="evenodd" clip-rule="evenodd" d="M14.5563 4.20421L14.5811 6.23883L16.081 6.22054L16.0562 4.18636L18.1249 4.16174L18.107 2.66185L16.0379 2.68647L16.0131 0.651848L14.5132 0.670143L14.538 2.70432L12.4693 2.72894L12.4871 4.22883L14.5563 4.20421ZM4.93859 4.49726C3.17908 4.49726 1.81689 5.90602 1.81689 7.57154V11.53V17.5274L7.21354 12.5232L7.7235 12.0503L8.23345 12.5232L13.6301 17.5274V11.4629V9.18176H15.1301V11.4629V19.2457V20.9639L13.8701 19.7956L7.7235 14.096L1.57685 19.7956L0.316895 20.9639V19.2457V11.53V7.57154C0.316895 5.07731 2.35094 2.99726 4.93859 2.99726H7.7235H10.1688V4.49726H7.7235H4.93859Z" fill="#616161"/>
</svg>
