<svg width="25" height="25" viewBox="0 0 25 25" fill="none" xmlns="http://www.w3.org/2000/svg">
<path d="M0.755859 12.5211C0.755859 14.8945 1.45965 17.2145 2.77822 19.1879C4.0968 21.1613 5.97094 22.6994 8.16366 23.6076C10.3564 24.5159 12.7692 24.7535 15.0969 24.2905C17.4247 23.8275 19.5629 22.6846 21.2411 21.0064C22.9194 19.3281 24.0623 17.1899 24.5253 14.8622C24.9883 12.5344 24.7507 10.1216 23.8424 7.92888C22.9342 5.73617 21.3961 3.86203 19.4227 2.54345C17.4493 1.22488 15.1292 0.521088 12.7559 0.521088C9.57326 0.521088 6.52101 1.78537 4.27058 4.03581C2.02014 6.28624 0.755859 9.33849 0.755859 12.5211ZM5.89872 11.6639H16.313L11.5301 6.8576L12.7559 5.66394L19.613 12.5211L12.7559 19.3782L11.5301 18.1549L16.313 13.3782H5.89872V11.6639Z" fill="#999999"/>
</svg>
