<?xml version="1.0" encoding="UTF-8"?>
<svg xmlns="http://www.w3.org/2000/svg" xmlns:xlink="http://www.w3.org/1999/xlink" width="21px" height="21px" viewBox="0 0 21 21" version="1.1">
<g id="surface1">
<path style=" stroke:none;fill-rule:nonzero;fill:rgb(53.333333%,53.333333%,53.333333%);fill-opacity:1;" d="M 3.207031 18.050781 C 2.203125 17.082031 1.402344 15.925781 0.851562 14.644531 C 0.300781 13.363281 0.0117188 11.984375 0 10.589844 C -0.0117188 9.195312 0.253906 7.8125 0.78125 6.523438 C 1.308594 5.234375 2.089844 4.0625 3.074219 3.074219 C 4.0625 2.089844 5.234375 1.308594 6.523438 0.78125 C 7.8125 0.253906 9.195312 -0.0117188 10.589844 0 C 11.984375 0.0117188 13.363281 0.300781 14.644531 0.851562 C 15.925781 1.402344 17.082031 2.203125 18.050781 3.207031 C 19.964844 5.1875 21.023438 7.839844 21 10.589844 C 20.976562 13.34375 19.871094 15.976562 17.925781 17.925781 C 15.976562 19.871094 13.34375 20.976562 10.589844 21 C 7.839844 21.023438 5.1875 19.964844 3.207031 18.050781 Z M 7.480469 6.429688 L 7.480469 14.828125 L 9.578125 14.828125 L 9.578125 6.429688 Z M 11.679688 6.429688 L 11.679688 14.828125 L 13.777344 14.828125 L 13.777344 6.429688 Z M 11.679688 6.429688 "/>
</g>
</svg>
