<svg width="20" height="20" viewBox="0 0 20 20" fill="none" xmlns="http://www.w3.org/2000/svg">
<g clip-path="url(#clip0_1155_907)">
<path d="M10.0493 5.76526C4.52984 5.76526 0.0493164 10.2458 0.0493164 15.7653C0.0493164 21.2847 4.52984 25.7653 10.0493 25.7653C15.5688 25.7653 20.0493 21.2847 20.0493 15.7653C20.0493 10.2458 15.5688 5.76526 10.0493 5.76526ZM10.3091 21.3821C10.3091 21.5445 10.1143 21.6419 9.98438 21.5445L5.79607 18.2977V18.3951H3.10126C3.00386 18.3951 2.90646 18.2977 2.90646 18.2003V13.3627C2.90646 13.2653 3.00386 13.1679 3.10126 13.1679H5.82854V13.2653L10.0168 10.0185C10.1467 9.9211 10.3415 10.0185 10.3415 10.1808V21.3821H10.3091ZM11.3805 12.8432C13.0039 12.8432 14.3026 14.1743 14.3026 15.7653C14.3026 17.3886 12.9714 18.6873 11.3805 18.6873V12.8432ZM11.3805 21.6094V20.3107C13.8805 20.3107 15.9259 18.2653 15.9259 15.7653C15.9259 13.2653 13.8805 11.2198 11.3805 11.2198V9.9211C14.5948 9.9211 17.2246 12.551 17.2246 15.7653C17.2246 18.9795 14.5948 21.6094 11.3805 21.6094Z" fill="#757575"/>
</g>
<defs>
<clipPath id="clip0_1155_907">
<rect width="20" height="20" fill="white" transform="translate(0.0493164 5.76526)"/>
</clipPath>
</defs>
</svg>
