<svg width="21" height="21" viewBox="0 0 21 21" fill="none" xmlns="http://www.w3.org/2000/svg">
<g clip-path="url(#clip0_1155_908)">
<path d="M10.0493 0.765259C4.52984 0.765259 0.0493164 5.24578 0.0493164 10.7653C0.0493164 16.2847 4.52984 20.7653 10.0493 20.7653C15.5688 20.7653 20.0493 16.2847 20.0493 10.7653C20.0493 5.24578 15.5688 0.765259 10.0493 0.765259ZM10.3091 16.3821C10.3091 16.5445 10.1143 16.6419 9.98438 16.5445L5.79607 13.2977V13.3951H3.10126C3.00386 13.3951 2.90646 13.2977 2.90646 13.2003V8.36266C2.90646 8.26526 3.00386 8.16786 3.10126 8.16786H5.82854V8.26526L10.0168 5.01851C10.1467 4.9211 10.3415 5.01851 10.3415 5.18084V16.3821H10.3091ZM11.3805 7.84318C13.0039 7.84318 14.3026 9.17435 14.3026 10.7653C14.3026 12.3886 12.9714 13.6873 11.3805 13.6873V7.84318ZM11.3805 16.6094V15.3107C13.8805 15.3107 15.9259 13.2653 15.9259 10.7653C15.9259 8.26526 13.8805 6.2198 11.3805 6.2198V4.9211C14.5948 4.9211 17.2246 7.55097 17.2246 10.7653C17.2246 13.9795 14.5948 16.6094 11.3805 16.6094Z" fill="#757575"/>
</g>
<defs>
<clipPath id="clip0_1155_908">
<rect width="20" height="20" fill="white" transform="translate(0.0493164 0.765259)"/>
</clipPath>
</defs>
</svg>
