<svg width="25" height="25" viewBox="0 0 25 25" fill="none" xmlns="http://www.w3.org/2000/svg">
<path d="M24.5601 12.4579C24.5601 10.0845 23.8563 7.76444 22.5377 5.79105C21.2191 3.81766 19.345 2.27959 17.1523 1.37134C14.9595 0.463086 12.5467 0.225446 10.219 0.688468C7.8912 1.15149 5.75301 2.29438 4.07478 3.97261C2.39655 5.65084 1.25366 7.78904 0.790639 10.1168C0.327617 12.4446 0.565257 14.8574 1.47351 17.0501C2.38176 19.2428 3.91983 21.1169 5.89322 22.4355C7.86661 23.7541 10.1867 24.4579 12.5601 24.4579C15.7427 24.4579 18.7949 23.1936 21.0453 20.9432C23.2958 18.6927 24.5601 15.6405 24.5601 12.4579ZM19.4172 13.315L9.00292 13.315L13.7858 18.1214L12.5601 19.315L5.70292 12.4579L12.5601 5.60075L13.7858 6.82406L9.00292 11.6007L19.4172 11.6007L19.4172 13.315Z" fill="#999999"/>
</svg>
