<svg width="18" height="19" viewBox="0 0 18 19" fill="none" xmlns="http://www.w3.org/2000/svg">
<g clip-path="url(#clip0_265_1608)">
<path d="M1.5 3.11371C2.32843 3.11371 3 2.44214 3 1.61371C3 0.785281 2.32843 0.113708 1.5 0.113708C0.671573 0.113708 0 0.785281 0 1.61371C0 2.44214 0.671573 3.11371 1.5 3.11371Z" fill="#7A7A7A"/>
<path d="M1.5 7.61371C2.32843 7.61371 3 6.94214 3 6.11371C3 5.28528 2.32843 4.61371 1.5 4.61371C0.671573 4.61371 0 5.28528 0 6.11371C0 6.94214 0.671573 7.61371 1.5 7.61371Z" fill="#7A7A7A"/>
<path d="M1.5 16.6137C2.32843 16.6137 3 15.9421 3 15.1137C3 14.2853 2.32843 13.6137 1.5 13.6137C0.671573 13.6137 0 14.2853 0 15.1137C0 15.9421 0.671573 16.6137 1.5 16.6137Z" fill="#7A7A7A"/>
<path d="M1.5 12.1137C2.32843 12.1137 3 11.4421 3 10.6137C3 9.78528 2.32843 9.11371 1.5 9.11371C0.671573 9.11371 0 9.78528 0 10.6137C0 11.4421 0.671573 12.1137 1.5 12.1137Z" fill="#7A7A7A"/>
<path d="M17.2515 2.36371H5.9985C5.586 2.36371 5.25 2.02621 5.25 1.61521V1.61221C5.25 1.19971 5.5875 0.863708 5.9985 0.863708H17.25C17.6625 0.863708 18 1.20121 18 1.61221V1.61371C18 2.02621 17.6625 2.36371 17.2515 2.36371ZM17.2515 6.86371H5.9985C5.586 6.86371 5.25 6.52621 5.25 6.11521V6.11221C5.25 5.69971 5.5875 5.36371 5.9985 5.36371H17.25C17.6625 5.36371 18 5.70121 18 6.11221V6.11371C18 6.52621 17.6625 6.86371 17.2515 6.86371ZM17.2515 11.3637H5.9985C5.586 11.3637 5.25 11.0262 5.25 10.6152V10.6137C5.25 10.2012 5.5875 9.86371 5.9985 9.86371H17.25C17.6625 9.86371 18 10.2012 18 10.6122V10.6137C18 11.0262 17.6625 11.3637 17.2515 11.3637ZM17.2515 15.8637H5.9985C5.586 15.8637 5.25 15.5262 5.25 15.1152V15.1137C5.25 14.7012 5.5875 14.3637 5.9985 14.3637H17.25C17.6625 14.3637 18 14.7012 18 15.1122V15.1137C18 15.5262 17.6625 15.8637 17.2515 15.8637Z" fill="#7A7A7A"/>
</g>
<defs>
<clipPath id="clip0_265_1608">
<rect width="18" height="18" fill="white" transform="translate(0 0.113708)"/>
</clipPath>
</defs>
</svg>
